<svg width="352" height="70" viewBox="0 0 352 70" fill="none" xmlns="http://www.w3.org/2000/svg">
<path d="M0.950007 0.399998H14.87V70H0.950007V0.399998ZM22.5575 0.399998H35.8055L42.9095 28.336V0.399998H57.2135V70H42.9095L35.4215 40.912V70H22.5575V0.399998ZM68.3398 70L65.8438 57.04H80.8198C81.9078 57.04 82.4518 56.56 82.4518 55.6V42.928C82.4518 41.968 82.2598 41.392 81.8758 41.2C81.4918 41.008 80.8198 40.912 79.8598 40.912H72.6598C71.6358 40.912 70.6438 40.848 69.6838 40.72C68.7878 40.528 67.9558 40.144 67.1878 39.568C66.4838 38.992 65.9078 38.192 65.4598 37.168C65.0758 36.144 64.8838 34.768 64.8838 33.04V9.424C64.8838 6.672 65.6198 4.496 67.0918 2.89599C68.6278 1.232 71.0278 0.399998 74.2918 0.399998H93.4918L95.8918 13.36H80.1478C78.9958 13.36 78.4198 13.872 78.4198 14.896V27.568C78.4198 28.272 78.5798 28.752 78.8998 29.008C79.2838 29.264 79.8278 29.392 80.5318 29.392H89.2678C91.5078 29.392 93.2038 29.936 94.3558 31.024C95.5718 32.048 96.1798 33.872 96.1798 36.496V59.44C96.1798 63.28 95.3798 66 93.7798 67.6C92.2438 69.2 89.4918 70 85.5238 70H68.3398ZM130.354 0.399998L133.81 13.36H124.498V70H110.29V13.36H100.978L104.626 0.399998H130.354ZM147.224 61.36L145.976 70H131.96L144.536 0.399998H159.416L171.992 70H157.976L156.728 61.36H147.224ZM148.76 50.32H155.192L152.024 25.648L148.76 50.32ZM177.05 8.848C177.05 6.288 177.722 4.24 179.066 2.704C180.474 1.168 182.554 0.399998 185.306 0.399998H205.178L207.578 13.36H192.314C191.482 13.36 191.066 13.808 191.066 14.704V55.984C191.066 56.88 191.482 57.328 192.314 57.328H198.65V29.872H212.186V70H187.898C183.866 70 181.05 69.168 179.45 67.504C177.85 65.84 177.05 63.088 177.05 59.248V8.848ZM233.484 12.592V36.592H240.3C241.196 36.592 241.644 36.112 241.644 35.152V14.032C241.644 13.072 241.196 12.592 240.3 12.592H233.484ZM255.372 41.68C255.372 43.216 254.828 44.624 253.74 45.904C252.716 47.184 251.18 47.824 249.132 47.824L256.428 70H242.028L235.308 47.824H233.484V70H219.564V0.399998H245.964C249.228 0.399998 251.596 1.232 253.068 2.89599C254.604 4.496 255.372 6.672 255.372 9.424V41.68ZM275.89 61.36L274.642 70H260.626L273.202 0.399998H288.082L300.658 70H286.642L285.394 61.36H275.89ZM277.426 50.32H283.858L280.69 25.648L277.426 50.32ZM319.908 37.168V70H306.372V0.399998H321.06L328.644 29.776L336.228 0.399998H351.012V70H337.476V37.168L328.644 65.008L319.908 37.168Z" fill="white"/>
</svg>
