<svg width="20" height="20" viewBox="0 0 20 20" fill="none" xmlns="http://www.w3.org/2000/svg">
<path fill-rule="evenodd" clip-rule="evenodd" d="M20 10C20 15.5229 15.5229 20 10 20C4.47715 20 0 15.5229 0 10C0 4.47715 4.47715 0 10 0C15.5229 0 20 4.47715 20 10ZM13.3622 6.63778C13.6411 6.91673 13.6411 7.369 13.3622 7.64793L11.0101 10L10 8.98986L12.3521 6.63778C12.631 6.35884 13.0833 6.35884 13.3622 6.63778ZM8.98986 10L6.63778 7.64793C6.35884 7.369 6.35884 6.91673 6.63778 6.63778C6.91673 6.35884 7.369 6.35884 7.64793 6.63778L10 8.98986L8.98986 10ZM8.98986 10L10 11.0101L7.64793 13.3622C7.369 13.6411 6.91673 13.6411 6.63778 13.3622C6.35884 13.0833 6.35884 12.631 6.63778 12.3521L8.98986 10ZM10 11.0101L11.0101 10L13.3622 12.3521C13.6411 12.631 13.6411 13.0833 13.3622 13.3622C13.0833 13.6411 12.631 13.6411 12.3521 13.3622L10 11.0101Z" fill="#EC9494"/>
</svg>
