<svg width="201" height="37" viewBox="0 0 201 37" fill="none" xmlns="http://www.w3.org/2000/svg">
<g clip-path="url(#clip0_438_2376)">
<path d="M12.2499 6.35V18.85H15.7999C16.2666 18.85 16.4999 18.6 16.4999 18.1V7.1C16.4999 6.6 16.2666 6.35 15.7999 6.35H12.2499ZM23.6499 21.5C23.6499 22.3 23.3666 23.0333 22.7999 23.7C22.2666 24.3667 21.4666 24.7 20.3999 24.7L24.1999 36.25H16.6999L13.4999 24.7H12.2499V36.25H4.99993V4.7C-1.5 0 -1.50001 0 4.99993 0H18.7499C20.4499 0 21.6833 0.433331 22.4499 1.3C23.2499 2.13333 23.6499 3.26667 23.6499 4.7V21.5ZM35.1367 26L33.6867 36.25H26.3867L32.9367 0H40.6867L47.2367 36.25H39.9367L38.4867 26H35.1367ZM35.1367 26H38.4867L36.8367 13.15L35.1367 26ZM68.9628 36.25H61.5628V21.75H57.6128V36.25H50.2128V0H57.6128V15.5H61.5628V0H68.9628V36.25Z" fill="#D31E1C"/>
<path d="M75 4.4C75 3.06666 75.35 2 76.05 1.2C76.7834 0.400001 77.8667 0 79.3 0H89.65L90.9 6.75H82.95C82.5167 6.75 82.3 6.98333 82.3 7.45V28.95C82.3 29.4167 82.5167 29.65 82.95 29.65H86.25V15.35H93.3V36.25H80.65C78.55 36.25 77.0834 35.8167 76.25 34.95C75.4167 34.0833 75 32.65 75 30.65V4.4ZM104.24 31.75L103.59 36.25H96.2891L102.84 0H110.59L117.14 36.25H109.84L109.19 31.75H104.24ZM105.04 26H108.39L106.74 13.15L105.04 26ZM127.316 6.35V29.9H130.716C131.016 29.9 131.199 29.85 131.266 29.75C131.366 29.6167 131.416 29.4167 131.416 29.15V7.05C131.416 6.58333 131.199 6.35 130.766 6.35H127.316ZM138.616 30.65C138.616 32.65 138.199 34.0833 137.366 34.95C136.532 35.8167 135.066 36.25 132.966 36.25H120.116V0H134.316C135.749 0 136.816 0.400001 137.516 1.2C138.249 2 138.616 3.06666 138.616 4.4V30.65ZM142.6 4.4C142.6 3.06666 142.95 2 143.65 1.2C144.383 0.400001 145.467 0 146.9 0H157.25L158.5 6.75H150.55C150.117 6.75 149.9 6.98333 149.9 7.45V28.95C149.9 29.4167 150.117 29.65 150.55 29.65H153.85V15.35H160.9V36.25H148.25C146.15 36.25 144.683 35.8167 143.85 34.95C143.017 34.0833 142.6 32.65 142.6 30.65V4.4ZM164.743 0H178.843L180.093 6.75H172.193V15.35H178.193V21.6H172.193V29.5H179.793L178.543 36.25H164.743V0ZM197.914 0L199.714 6.75H194.864V36.25H187.464V6.75H182.614L184.514 0H197.914Z" fill="white"/>
</g>
<defs>
<clipPath id="clip0_438_2376">
<rect width="201" height="37" fill="white"/>
</clipPath>
</defs>
</svg>
