<svg width="20" height="20" viewBox="0 0 20 20" fill="none" xmlns="http://www.w3.org/2000/svg">
<path fill-rule="evenodd" clip-rule="evenodd" d="M10 20C15.5229 20 20 15.5229 20 10C20 4.47715 15.5229 0 10 0C4.47715 0 0 4.47715 0 10C0 15.5229 4.47715 20 10 20ZM14.3146 7.64793C14.5936 7.369 14.5936 6.91673 14.3146 6.63778C14.0356 6.35884 13.5834 6.35884 13.3044 6.63778L8.57143 11.3708L6.69555 9.49493C6.41661 9.216 5.96434 9.216 5.6854 9.49493C5.40646 9.77386 5.40646 10.2261 5.6854 10.5051L8.06636 12.886C8.34529 13.165 8.79757 13.165 9.0765 12.886L14.3146 7.64793Z" fill="#94EC94"/>
</svg>
