<svg width="890" height="137" viewBox="0 0 890 137" fill="none" xmlns="http://www.w3.org/2000/svg">
<g clip-path="url(#clip0_445_2574)">
<path d="M114.456 23.4308V69.5543H127.555C129.277 69.5543 130.138 68.6318 130.138 66.7869V26.1982C130.138 24.3532 129.277 23.4308 127.555 23.4308H114.456ZM156.521 79.3325C156.521 82.2844 155.476 84.9902 153.385 87.4503C151.417 89.9103 148.465 91.1401 144.529 91.1401L158.55 133.758H130.876L119.069 91.1401H114.456V133.758H87.7047V17.3425C63.7207 0 63.7207 0 87.7047 0H138.44C144.713 0 149.264 1.59894 152.093 4.79685C155.045 7.87174 156.521 12.0536 156.521 17.3425V79.3325ZM198.906 95.937L193.556 133.758H166.619L190.788 0H219.385L243.554 133.758H216.617L211.267 95.937H198.906ZM198.906 95.937H211.267L205.179 48.522L198.906 95.937ZM323.72 133.758H296.415V80.255H281.84V133.758H254.535V0H281.84V57.1932H296.415V0H323.72V133.758Z" fill="white"/>
<path d="M360.804 19.2022C360.804 14.2823 362.095 10.3464 364.678 7.39454C367.384 4.44263 371.382 2.96667 376.67 2.96667H414.861L419.473 27.8734H390.138C388.539 27.8734 387.74 28.7344 387.74 30.4563V109.789C387.74 111.511 388.539 112.372 390.138 112.372H402.315V59.6064H428.329V136.725H381.652C373.903 136.725 368.491 135.126 365.416 131.928C362.341 128.73 360.804 123.441 360.804 116.062V19.2022ZM468.694 120.121L466.296 136.725H439.358L463.529 2.96667H492.125L516.294 136.725H489.358L486.959 120.121H468.694ZM471.646 98.9037H484.007L477.919 51.4887L471.646 98.9037ZM553.842 26.3974V113.294H566.388C567.495 113.294 568.17 113.11 568.417 112.741C568.786 112.249 568.971 111.511 568.971 110.527V28.9804C568.971 27.2584 568.17 26.3974 566.572 26.3974H553.842ZM595.538 116.062C595.538 123.441 593.999 128.73 590.926 131.928C587.848 135.126 582.439 136.725 574.69 136.725H527.275V2.96667H579.671C584.959 2.96667 588.896 4.44263 591.479 7.39454C594.184 10.3464 595.538 14.2823 595.538 19.2022V116.062ZM610.238 19.2022C610.238 14.2823 611.53 10.3464 614.113 7.39454C616.817 4.44263 620.817 2.96667 626.105 2.96667H664.295L668.908 27.8734H639.573C637.975 27.8734 637.175 28.7344 637.175 30.4563V109.789C637.175 111.511 637.975 112.372 639.573 112.372H651.75V59.6064H677.763V136.725H631.086C623.337 136.725 617.924 135.126 614.851 131.928C611.777 128.73 610.238 123.441 610.238 116.062V19.2022ZM691.944 2.96667H743.971L748.583 27.8734H719.433V59.6064H741.572V82.6682H719.433V111.818H747.476L742.864 136.725H691.944V2.96667ZM814.341 2.96667L820.982 27.8734H803.087V136.725H775.781V27.8734H757.885L764.896 2.96667H814.341Z" fill="white"/>
</g>
<defs>
<clipPath id="clip0_445_2574">
<rect width="890" height="136.013" fill="white"/>
</clipPath>
</defs>
</svg>
