<svg width="223" height="70" viewBox="0 0 223 70" fill="none" xmlns="http://www.w3.org/2000/svg">
<path d="M30.336 0.399998L33.792 13.36H24.48V70H10.272V13.36H0.96L4.608 0.399998H30.336ZM39.5812 0.399998H53.5012V70H39.5812V0.399998ZM75.3968 30.256H77.5088L84.6128 0.399998H99.0128L90.6608 32.464L98.9168 70H83.6528L78.1808 41.296H75.3968V70H61.1888V0.399998H75.3968V30.256ZM131.909 0.399998L135.365 13.36H126.053V70H111.845V13.36H102.533L106.181 0.399998H131.909ZM156.418 12.592C155.586 12.592 155.17 13.04 155.17 13.936V56.368C155.17 56.88 155.234 57.264 155.362 57.52C155.554 57.712 155.938 57.808 156.514 57.808H161.794C162.37 57.808 162.722 57.712 162.85 57.52C163.042 57.264 163.138 56.88 163.138 56.368V13.936C163.138 13.04 162.722 12.592 161.89 12.592H156.418ZM177.25 60.112C177.25 61.456 177.09 62.736 176.77 63.952C176.45 65.104 175.906 66.128 175.138 67.024C174.37 67.92 173.346 68.656 172.066 69.232C170.786 69.744 169.186 70 167.266 70H151.138C149.218 70 147.618 69.744 146.338 69.232C145.058 68.656 144.034 67.92 143.266 67.024C142.498 66.128 141.954 65.104 141.634 63.952C141.314 62.736 141.154 61.456 141.154 60.112V9.424C141.154 6.672 141.89 4.496 143.362 2.89599C144.898 1.232 147.298 0.399998 150.562 0.399998H167.842C171.106 0.399998 173.474 1.232 174.946 2.89599C176.482 4.496 177.25 6.672 177.25 9.424V60.112ZM199.094 30.256H201.206L208.31 0.399998H222.71L214.358 32.464L222.614 70H207.35L201.878 41.296H199.094V70H184.886V0.399998H199.094V30.256Z" fill="#D31E1C"/>
</svg>
