<svg width="288" height="70" viewBox="0 0 288 70" fill="none" xmlns="http://www.w3.org/2000/svg">
<path d="M28.232 70H13.544V52.336L0.200006 0.399998H14.6L20.84 33.232L27.176 0.399998H41.576L28.232 52.336V70ZM62.1478 12.592C61.3158 12.592 60.8998 13.04 60.8998 13.936V56.368C60.8998 56.88 60.9638 57.264 61.0918 57.52C61.2838 57.712 61.6678 57.808 62.2438 57.808H67.5238C68.0998 57.808 68.4518 57.712 68.5798 57.52C68.7718 57.264 68.8678 56.88 68.8678 56.368V13.936C68.8678 13.04 68.4518 12.592 67.6198 12.592H62.1478ZM82.9798 60.112C82.9798 61.456 82.8198 62.736 82.4998 63.952C82.1798 65.104 81.6358 66.128 80.8678 67.024C80.0998 67.92 79.0758 68.656 77.7958 69.232C76.5158 69.744 74.9158 70 72.9958 70H56.8678C54.9478 70 53.3478 69.744 52.0678 69.232C50.7878 68.656 49.7638 67.92 48.9958 67.024C48.2278 66.128 47.6838 65.104 47.3638 63.952C47.0438 62.736 46.8838 61.456 46.8838 60.112V9.424C46.8838 6.672 47.6198 4.496 49.0918 2.89599C50.6278 1.232 53.0278 0.399998 56.2918 0.399998H73.5718C76.8358 0.399998 79.2038 1.232 80.6758 2.89599C82.2118 4.496 82.9798 6.672 82.9798 9.424V60.112ZM101.464 70C97.4323 70 94.6163 69.168 93.0163 67.504C91.4163 65.84 90.6163 63.088 90.6163 59.248V0.399998H104.824V56.272C104.824 56.784 104.888 57.168 105.016 57.424C105.208 57.68 105.592 57.808 106.168 57.808H111.064C111.64 57.808 111.992 57.68 112.12 57.424C112.312 57.168 112.408 56.784 112.408 56.272V0.399998H126.616V59.248C126.616 63.088 125.816 65.84 124.216 67.504C122.616 69.168 119.8 70 115.768 70H101.464ZM161.711 0.399998L165.167 13.36H155.855V70H141.647V13.36H132.335L135.983 0.399998H161.711ZM181.804 70C177.772 70 174.956 69.168 173.356 67.504C171.756 65.84 170.956 63.088 170.956 59.248V0.399998H185.164V56.272C185.164 56.784 185.228 57.168 185.356 57.424C185.548 57.68 185.932 57.808 186.508 57.808H191.404C191.98 57.808 192.332 57.68 192.46 57.424C192.652 57.168 192.748 56.784 192.748 56.272V0.399998H206.956V59.248C206.956 63.088 206.156 65.84 204.556 67.504C202.956 69.168 200.14 70 196.108 70H181.804ZM228.419 12.592V30.832H234.947C235.459 30.832 235.875 30.704 236.195 30.448C236.515 30.128 236.675 29.648 236.675 29.008V13.936C236.675 13.04 236.259 12.592 235.427 12.592H228.419ZM236.867 43.408C236.867 42.64 236.675 42.128 236.291 41.872C235.907 41.552 235.395 41.392 234.755 41.392H228.419V57.808H235.427C236.003 57.808 236.387 57.712 236.579 57.52C236.771 57.264 236.867 56.88 236.867 56.368V43.408ZM250.019 27.952C250.019 29.68 249.667 31.184 248.963 32.464C248.323 33.68 247.075 34.544 245.219 35.056C247.139 35.184 248.515 35.856 249.347 37.072C250.243 38.288 250.691 39.664 250.691 41.2V59.248C250.691 63.088 249.891 65.84 248.291 67.504C246.691 69.168 243.875 70 239.843 70H214.595V0.399998H241.763C244.515 0.399998 246.563 1.168 247.907 2.704C249.315 4.24 250.019 6.288 250.019 8.848V27.952ZM258.328 0.399998H285.4L287.8 13.36H272.632V29.872H284.152V41.872H272.632V57.04H287.224L284.824 70H258.328V0.399998Z" fill="#D31E1C"/>
</svg>
